<?xml version="1.0" encoding="UTF-8"?>
<svg version="1.1" xmlns="http://www.w3.org/2000/svg" width="1920" height="1920">
<path d="M0 0 C290.4 0 580.8 0 880 0 C880 112.2 880 224.4 880 340 C589.6 340 299.2 340 0 340 C0 300.4 0 260.8 0 220 C46.2 220 92.4 220 140 220 C140 187 140 154 140 120 C93.8 120 47.6 120 0 120 C0 80.4 0 40.8 0 0 Z " fill="#FFE7EE" transform="translate(940,1060)"/>
<path d="M0 0 C277.2 0 554.4 0 840 0 C840 72.6 840 145.2 840 220 C562.8 220 285.6 220 0 220 C0 147.4 0 74.8 0 0 Z " fill="#FFE7EE" transform="translate(0,1280)"/>
<path d="M0 0 C277.2 0 554.4 0 840 0 C840 72.6 840 145.2 840 220 C562.8 220 285.6 220 0 220 C0 147.4 0 74.8 0 0 Z " fill="#FFE7EE" transform="translate(0,960)"/>
<path d="M0 0 C132 0 264 0 400 0 C400 112.2 400 224.4 400 340 C268 340 136 340 0 340 C0 227.8 0 115.6 0 0 Z " fill="#FFE7EE" transform="translate(340,520)"/>
<path d="M0 0 C0.56992676 0.40911621 1.13985352 0.81823242 1.72705078 1.23974609 C17.99223473 13.01127341 31.61607725 27.51663972 43 44 C43.639375 44.89332031 44.27875 45.78664063 44.9375 46.70703125 C69.20292944 82.37496572 76.65900372 129.43869907 68.9753418 171.49682617 C63.99768709 195.4725641 54.450895 218.23522431 40 238 C39.59088379 238.56992676 39.18176758 239.13985352 38.76025391 239.72705078 C26.98872659 255.99223473 12.48336028 269.61607725 -4 281 C-4.89332031 281.639375 -5.78664063 282.27875 -6.70703125 282.9375 C-42.37496572 307.20292944 -89.43869907 314.65900372 -131.49682617 306.9753418 C-155.4725641 301.99768709 -178.23522431 292.450895 -198 278 C-198.56992676 277.59088379 -199.13985352 277.18176758 -199.72705078 276.76025391 C-215.99223473 264.98872659 -229.61607725 250.48336028 -241 234 C-241.9590625 232.66001953 -241.9590625 232.66001953 -242.9375 231.29296875 C-267.20292944 195.62503428 -274.65900372 148.56130093 -266.9753418 106.50317383 C-261.99768709 82.5274359 -252.450895 59.76477569 -238 40 C-237.59088379 39.43007324 -237.18176758 38.86014648 -236.76025391 38.27294922 C-224.98872659 22.00776527 -210.48336028 8.38392275 -194 -3 C-193.10667969 -3.639375 -192.21335937 -4.27875 -191.29296875 -4.9375 C-134.93957398 -43.27555755 -54.38389198 -39.76245039 0 0 Z " fill="#FFE7EE" transform="translate(1209,551)"/>
<path d="M0 0 C90.75 0 181.5 0 275 0 C275 72.6 275 145.2 275 220 C98.45 220 -78.1 220 -260 220 C-260 219.67 -260 219.34 -260 219 C-258.9162207 218.94054199 -258.9162207 218.94054199 -257.81054688 218.87988281 C-193.22013194 215.18725328 -133.51955684 193.59873839 -85 150 C-84.44473633 149.5064502 -83.88947266 149.01290039 -83.31738281 148.50439453 C-70.8530917 137.40214334 -60.02051924 125.33985964 -50 112 C-49.52981445 111.38092773 -49.05962891 110.76185547 -48.57519531 110.12402344 C-24.91619371 78.7442102 -9.63674261 42.05685169 -1.44555664 3.77392578 C-1 2 -1 2 0 0 Z " fill="#FFE7EE" transform="translate(1375,740)"/>
<path d="M0 0 C176.55 0 353.1 0 535 0 C535 72.6 535 145.2 535 220 C444.25 220 353.5 220 260 220 C258.68 215.05 257.36 210.1 256 205 C251.88307148 189.91439762 247.24251876 175.34614208 241 161 C240.54270508 159.93289795 240.54270508 159.93289795 240.07617188 158.84423828 C229.10059396 133.47358546 213.42865253 110.50862219 195 90 C194.5064502 89.44473633 194.01290039 88.88947266 193.50439453 88.31738281 C182.40214334 75.8530917 170.33985964 65.02051924 157 55 C156.0713916 54.29472168 156.0713916 54.29472168 155.12402344 53.57519531 C110.40863414 19.86175479 55.58964058 2.88109636 0 1 C0 0.67 0 0.34 0 0 Z " fill="#FFE7EE" transform="translate(1115,420)"/>
<path d="M0 0 C62.7 0 125.4 0 190 0 C190 112.2 190 224.4 190 340 C127.3 340 64.6 340 0 340 C0 227.8 0 115.6 0 0 Z " fill="#FFE7EE" transform="translate(0,520)"/>
<path d="M0 0 C23.1 0 46.2 0 70 0 C70 178.2 70 356.4 70 540 C46.9 540 23.8 540 0 540 C0 361.8 0 183.6 0 0 Z " fill="#FFE7EE" transform="translate(1750,420)"/>
</svg>
